<svg xmlns="http://www.w3.org/2000/svg" width="1000" height="330" viewBox="0 0 1000 330" role="img" aria-labelledby="t d">
<title id="t">Contribution signal</title>
<desc id="d">774 contributions over the last 182 days on 73 active days. Bars are daily contributions, the line is the 7-day average.</desc>
<defs><linearGradient id="area" x1="0" y1="0" x2="0" y2="1"><stop offset="0" stop-color="#22D3EE" stop-opacity="0.38"/><stop offset="1" stop-color="#22D3EE" stop-opacity="0.02"/></linearGradient><style>.sans{font-family:'Segoe UI',Inter,'Helvetica Neue',Arial,sans-serif}.mono{font-family:'JetBrains Mono','SF Mono',Consolas,'Courier New',monospace}</style></defs>
<rect x="1" y="1" width="998" height="328" rx="18" fill="#080C18" stroke="#1E293B"/>
<text x="44" y="58" class="sans" font-size="22" font-weight="700" fill="#F1F5F9">Contribution signal</text>
<text x="44" y="84" class="sans" font-size="14" fill="#7C8DB5">Last six months, line shows the 7-day average</text>
<rect x="520" y="34" width="128" height="56" rx="12" fill="#0F172A" stroke="#1E293B"/>
<text x="536" y="58" class="mono" font-size="15" font-weight="700" fill="#E2E8F0">774</text>
<text x="536" y="77" class="mono" font-size="12" fill="#64748B">contributions</text>
<rect x="660" y="34" width="138" height="56" rx="12" fill="#0F172A" stroke="#1E293B"/>
<text x="676" y="58" class="mono" font-size="15" font-weight="700" fill="#E2E8F0">73/182</text>
<text x="676" y="77" class="mono" font-size="12" fill="#64748B">active days</text>
<rect x="810" y="34" width="152" height="56" rx="12" fill="#0F172A" stroke="#1E293B"/>
<text x="826" y="58" class="mono" font-size="15" font-weight="700" fill="#E2E8F0">52 on 05 Sep</text>
<text x="826" y="77" class="mono" font-size="12" fill="#64748B">busiest day</text>
<line x1="74" y1="282.0" x2="962" y2="282.0" stroke="#1E293B" stroke-width="1"/>
<text x="62" y="286.0" text-anchor="end" class="mono" font-size="11" fill="#64748B">0</text>
<line x1="74" y1="243.5" x2="962" y2="243.5" stroke="#1E293B" stroke-width="1"/>
<text x="62" y="247.5" text-anchor="end" class="mono" font-size="11" fill="#64748B">13</text>
<line x1="74" y1="205.0" x2="962" y2="205.0" stroke="#1E293B" stroke-width="1"/>
<text x="62" y="209.0" text-anchor="end" class="mono" font-size="11" fill="#64748B">26</text>
<line x1="74" y1="166.5" x2="962" y2="166.5" stroke="#1E293B" stroke-width="1"/>
<text x="62" y="170.5" text-anchor="end" class="mono" font-size="11" fill="#64748B">39</text>
<line x1="74" y1="128.0" x2="962" y2="128.0" stroke="#1E293B" stroke-width="1"/>
<text x="62" y="132.0" text-anchor="end" class="mono" font-size="11" fill="#64748B">52</text>
<rect x="74.93" y="270.15" width="3.03" height="11.85" rx="1" fill="#A78BFA" fill-opacity="0.45"/>
<rect x="79.81" y="249.42" width="3.03" height="32.58" rx="1" fill="#A78BFA" fill-opacity="0.45"/>
<rect x="265.21" y="184.27" width="3.03" height="97.73" rx="1" fill="#A78BFA" fill-opacity="0.45"/>
<rect x="270.09" y="273.12" width="3.03" height="8.88" rx="1" fill="#A78BFA" fill-opacity="0.45"/>
<rect x="475.01" y="276.08" width="3.03" height="5.92" rx="1" fill="#A78BFA" fill-opacity="0.45"/>
<rect x="479.89" y="145.77" width="3.03" height="136.23" rx="1" fill="#A78BFA" fill-opacity="0.45"/>
<rect x="484.77" y="270.15" width="3.03" height="11.85" rx="1" fill="#A78BFA" fill-opacity="0.45"/>
<rect x="489.65" y="273.12" width="3.03" height="8.88" rx="1" fill="#A78BFA" fill-opacity="0.45"/>
<rect x="494.53" y="273.12" width="3.03" height="8.88" rx="1" fill="#A78BFA" fill-opacity="0.45"/>
<rect x="499.41" y="261.27" width="3.03" height="20.73" rx="1" fill="#A78BFA" fill-opacity="0.45"/>
<rect x="509.17" y="273.12" width="3.03" height="8.88" rx="1" fill="#A78BFA" fill-opacity="0.45"/>
<rect x="518.93" y="246.46" width="3.03" height="35.54" rx="1" fill="#A78BFA" fill-opacity="0.45"/>
<rect x="548.20" y="270.15" width="3.03" height="11.85" rx="1" fill="#A78BFA" fill-opacity="0.45"/>
<rect x="572.60" y="273.12" width="3.03" height="8.88" rx="1" fill="#A78BFA" fill-opacity="0.45"/>
<rect x="582.36" y="267.19" width="3.03" height="14.81" rx="1" fill="#A78BFA" fill-opacity="0.45"/>
<rect x="587.23" y="178.35" width="3.03" height="103.65" rx="1" fill="#A78BFA" fill-opacity="0.45"/>
<rect x="592.11" y="261.27" width="3.03" height="20.73" rx="1" fill="#A78BFA" fill-opacity="0.45"/>
<rect x="601.87" y="279.04" width="3.03" height="2.96" rx="1" fill="#A78BFA" fill-opacity="0.45"/>
<rect x="606.75" y="264.23" width="3.03" height="17.77" rx="1" fill="#A78BFA" fill-opacity="0.45"/>
<rect x="611.63" y="264.23" width="3.03" height="17.77" rx="1" fill="#A78BFA" fill-opacity="0.45"/>
<rect x="616.51" y="255.35" width="3.03" height="26.65" rx="1" fill="#A78BFA" fill-opacity="0.45"/>
<rect x="621.39" y="258.31" width="3.03" height="23.69" rx="1" fill="#A78BFA" fill-opacity="0.45"/>
<rect x="636.03" y="276.08" width="3.03" height="5.92" rx="1" fill="#A78BFA" fill-opacity="0.45"/>
<rect x="650.66" y="237.58" width="3.03" height="44.42" rx="1" fill="#A78BFA" fill-opacity="0.45"/>
<rect x="655.54" y="184.27" width="3.03" height="97.73" rx="1" fill="#A78BFA" fill-opacity="0.45"/>
<rect x="665.30" y="276.08" width="3.03" height="5.92" rx="1" fill="#A78BFA" fill-opacity="0.45"/>
<rect x="670.18" y="276.08" width="3.03" height="5.92" rx="1" fill="#A78BFA" fill-opacity="0.45"/>
<rect x="675.06" y="273.12" width="3.03" height="8.88" rx="1" fill="#A78BFA" fill-opacity="0.45"/>
<rect x="679.94" y="255.35" width="3.03" height="26.65" rx="1" fill="#A78BFA" fill-opacity="0.45"/>
<rect x="684.82" y="270.15" width="3.03" height="11.85" rx="1" fill="#A78BFA" fill-opacity="0.45"/>
<rect x="689.70" y="234.62" width="3.03" height="47.38" rx="1" fill="#A78BFA" fill-opacity="0.45"/>
<rect x="714.09" y="279.04" width="3.03" height="2.96" rx="1" fill="#A78BFA" fill-opacity="0.45"/>
<rect x="718.97" y="264.23" width="3.03" height="17.77" rx="1" fill="#A78BFA" fill-opacity="0.45"/>
<rect x="723.85" y="249.42" width="3.03" height="32.58" rx="1" fill="#A78BFA" fill-opacity="0.45"/>
<rect x="728.73" y="228.69" width="3.03" height="53.31" rx="1" fill="#A78BFA" fill-opacity="0.45"/>
<rect x="733.61" y="264.23" width="3.03" height="17.77" rx="1" fill="#A78BFA" fill-opacity="0.45"/>
<rect x="767.76" y="279.04" width="3.03" height="2.96" rx="1" fill="#A78BFA" fill-opacity="0.45"/>
<rect x="772.64" y="276.08" width="3.03" height="5.92" rx="1" fill="#A78BFA" fill-opacity="0.45"/>
<rect x="777.52" y="279.04" width="3.03" height="2.96" rx="1" fill="#A78BFA" fill-opacity="0.45"/>
<rect x="782.40" y="225.73" width="3.03" height="56.27" rx="1" fill="#A78BFA" fill-opacity="0.45"/>
<rect x="787.28" y="128.00" width="3.03" height="154.00" rx="1" fill="#A78BFA" fill-opacity="0.45"/>
<rect x="792.16" y="160.58" width="3.03" height="121.42" rx="1" fill="#A78BFA" fill-opacity="0.45"/>
<rect x="797.04" y="261.27" width="3.03" height="20.73" rx="1" fill="#A78BFA" fill-opacity="0.45"/>
<rect x="801.92" y="276.08" width="3.03" height="5.92" rx="1" fill="#A78BFA" fill-opacity="0.45"/>
<rect x="811.67" y="273.12" width="3.03" height="8.88" rx="1" fill="#A78BFA" fill-opacity="0.45"/>
<rect x="816.55" y="258.31" width="3.03" height="23.69" rx="1" fill="#A78BFA" fill-opacity="0.45"/>
<rect x="821.43" y="240.54" width="3.03" height="41.46" rx="1" fill="#A78BFA" fill-opacity="0.45"/>
<rect x="826.31" y="163.54" width="3.03" height="118.46" rx="1" fill="#A78BFA" fill-opacity="0.45"/>
<rect x="831.19" y="279.04" width="3.03" height="2.96" rx="1" fill="#A78BFA" fill-opacity="0.45"/>
<rect x="836.07" y="252.38" width="3.03" height="29.62" rx="1" fill="#A78BFA" fill-opacity="0.45"/>
<rect x="840.95" y="258.31" width="3.03" height="23.69" rx="1" fill="#A78BFA" fill-opacity="0.45"/>
<rect x="845.83" y="279.04" width="3.03" height="2.96" rx="1" fill="#A78BFA" fill-opacity="0.45"/>
<rect x="855.59" y="276.08" width="3.03" height="5.92" rx="1" fill="#A78BFA" fill-opacity="0.45"/>
<rect x="865.34" y="261.27" width="3.03" height="20.73" rx="1" fill="#A78BFA" fill-opacity="0.45"/>
<rect x="870.22" y="255.35" width="3.03" height="26.65" rx="1" fill="#A78BFA" fill-opacity="0.45"/>
<rect x="875.10" y="240.54" width="3.03" height="41.46" rx="1" fill="#A78BFA" fill-opacity="0.45"/>
<rect x="879.98" y="264.23" width="3.03" height="17.77" rx="1" fill="#A78BFA" fill-opacity="0.45"/>
<rect x="884.86" y="255.35" width="3.03" height="26.65" rx="1" fill="#A78BFA" fill-opacity="0.45"/>
<rect x="889.74" y="228.69" width="3.03" height="53.31" rx="1" fill="#A78BFA" fill-opacity="0.45"/>
<rect x="894.62" y="213.88" width="3.03" height="68.12" rx="1" fill="#A78BFA" fill-opacity="0.45"/>
<rect x="899.50" y="264.23" width="3.03" height="17.77" rx="1" fill="#A78BFA" fill-opacity="0.45"/>
<rect x="904.38" y="243.50" width="3.03" height="38.50" rx="1" fill="#A78BFA" fill-opacity="0.45"/>
<rect x="909.26" y="264.23" width="3.03" height="17.77" rx="1" fill="#A78BFA" fill-opacity="0.45"/>
<rect x="914.14" y="246.46" width="3.03" height="35.54" rx="1" fill="#A78BFA" fill-opacity="0.45"/>
<rect x="919.01" y="240.54" width="3.03" height="41.46" rx="1" fill="#A78BFA" fill-opacity="0.45"/>
<rect x="923.89" y="210.92" width="3.03" height="71.08" rx="1" fill="#A78BFA" fill-opacity="0.45"/>
<rect x="928.77" y="252.38" width="3.03" height="29.62" rx="1" fill="#A78BFA" fill-opacity="0.45"/>
<rect x="933.65" y="279.04" width="3.03" height="2.96" rx="1" fill="#A78BFA" fill-opacity="0.45"/>
<rect x="938.53" y="276.08" width="3.03" height="5.92" rx="1" fill="#A78BFA" fill-opacity="0.45"/>
<rect x="943.41" y="270.15" width="3.03" height="11.85" rx="1" fill="#A78BFA" fill-opacity="0.45"/>
<rect x="948.29" y="234.62" width="3.03" height="47.38" rx="1" fill="#A78BFA" fill-opacity="0.45"/>
<rect x="953.17" y="237.58" width="3.03" height="44.42" rx="1" fill="#A78BFA" fill-opacity="0.45"/>
<rect x="958.05" y="252.38" width="3.03" height="29.62" rx="1" fill="#A78BFA" fill-opacity="0.45"/>
<path d="M76.44,270.15 L81.32,259.79 L86.20,267.19 L91.08,270.89 L95.96,273.12 L100.84,274.60 L105.71,275.65 L110.59,277.35 L115.47,282.00 L120.35,282.00 L125.23,282.00 L130.11,282.00 L134.99,282.00 L139.87,282.00 L144.75,282.00 L149.63,282.00 L154.51,282.00 L159.38,282.00 L164.26,282.00 L169.14,282.00 L174.02,282.00 L178.90,282.00 L183.78,282.00 L188.66,282.00 L193.54,282.00 L198.42,282.00 L203.30,282.00 L208.18,282.00 L213.05,282.00 L217.93,282.00 L222.81,282.00 L227.69,282.00 L232.57,282.00 L237.45,282.00 L242.33,282.00 L247.21,282.00 L252.09,282.00 L256.97,282.00 L261.85,282.00 L266.73,268.04 L271.60,266.77 L276.48,266.77 L281.36,266.77 L286.24,266.77 L291.12,266.77 L296.00,266.77 L300.88,280.73 L305.76,282.00 L310.64,282.00 L315.52,282.00 L320.40,282.00 L325.27,282.00 L330.15,282.00 L335.03,282.00 L339.91,282.00 L344.79,282.00 L349.67,282.00 L354.55,282.00 L359.43,282.00 L364.31,282.00 L369.19,282.00 L374.07,282.00 L378.95,282.00 L383.82,282.00 L388.70,282.00 L393.58,282.00 L398.46,282.00 L403.34,282.00 L408.22,282.00 L413.10,282.00 L417.98,282.00 L422.86,282.00 L427.74,282.00 L432.62,282.00 L437.49,282.00 L442.37,282.00 L447.25,282.00 L452.13,282.00 L457.01,282.00 L461.89,282.00 L466.77,282.00 L471.65,282.00 L476.53,281.15 L481.41,261.69 L486.29,260.00 L491.16,258.73 L496.04,257.46 L500.92,254.50 L505.80,254.50 L510.68,254.08 L515.56,273.54 L520.44,270.15 L525.32,271.42 L530.20,272.69 L535.08,275.65 L539.96,275.65 L544.84,276.92 L549.71,275.23 L554.59,280.31 L559.47,280.31 L564.35,280.31 L569.23,280.31 L574.11,279.04 L578.99,279.04 L583.87,278.62 L588.75,263.81 L593.63,260.85 L598.51,260.85 L603.38,260.42 L608.26,259.15 L613.14,256.62 L618.02,254.92 L622.90,266.35 L627.78,269.31 L632.66,269.31 L637.54,268.88 L642.42,271.42 L647.30,273.96 L652.18,271.42 L657.05,260.85 L661.93,260.85 L666.81,260.00 L671.69,260.00 L676.57,258.73 L681.45,254.92 L686.33,259.58 L691.21,266.77 L696.09,266.77 L700.97,267.62 L705.85,268.46 L710.73,269.73 L715.60,273.12 L720.48,272.27 L725.36,274.38 L730.24,266.77 L735.12,264.23 L740.00,264.23 L744.88,264.23 L749.76,264.65 L754.64,267.19 L759.52,271.85 L764.40,279.46 L769.27,281.58 L774.15,280.73 L779.03,280.31 L783.91,272.27 L788.79,250.27 L793.67,232.92 L798.55,229.96 L803.43,229.54 L808.31,230.38 L813.19,229.54 L818.07,234.19 L822.95,250.27 L827.82,250.69 L832.70,253.23 L837.58,249.85 L842.46,246.46 L847.34,247.31 L852.22,250.69 L857.10,255.77 L861.98,272.69 L866.86,270.15 L871.74,270.58 L876.62,268.04 L881.49,265.92 L886.37,262.12 L891.25,255.35 L896.13,245.62 L901.01,246.04 L905.89,244.35 L910.77,247.73 L915.65,245.19 L920.53,243.08 L925.41,240.54 L930.29,246.04 L935.16,248.15 L940.04,252.81 L944.92,253.65 L949.80,251.96 L954.68,251.54 L959.56,257.46 L959.56,282 L76.44,282 Z" fill="url(#area)"/>
<path d="M76.44,270.15 L81.32,259.79 L86.20,267.19 L91.08,270.89 L95.96,273.12 L100.84,274.60 L105.71,275.65 L110.59,277.35 L115.47,282.00 L120.35,282.00 L125.23,282.00 L130.11,282.00 L134.99,282.00 L139.87,282.00 L144.75,282.00 L149.63,282.00 L154.51,282.00 L159.38,282.00 L164.26,282.00 L169.14,282.00 L174.02,282.00 L178.90,282.00 L183.78,282.00 L188.66,282.00 L193.54,282.00 L198.42,282.00 L203.30,282.00 L208.18,282.00 L213.05,282.00 L217.93,282.00 L222.81,282.00 L227.69,282.00 L232.57,282.00 L237.45,282.00 L242.33,282.00 L247.21,282.00 L252.09,282.00 L256.97,282.00 L261.85,282.00 L266.73,268.04 L271.60,266.77 L276.48,266.77 L281.36,266.77 L286.24,266.77 L291.12,266.77 L296.00,266.77 L300.88,280.73 L305.76,282.00 L310.64,282.00 L315.52,282.00 L320.40,282.00 L325.27,282.00 L330.15,282.00 L335.03,282.00 L339.91,282.00 L344.79,282.00 L349.67,282.00 L354.55,282.00 L359.43,282.00 L364.31,282.00 L369.19,282.00 L374.07,282.00 L378.95,282.00 L383.82,282.00 L388.70,282.00 L393.58,282.00 L398.46,282.00 L403.34,282.00 L408.22,282.00 L413.10,282.00 L417.98,282.00 L422.86,282.00 L427.74,282.00 L432.62,282.00 L437.49,282.00 L442.37,282.00 L447.25,282.00 L452.13,282.00 L457.01,282.00 L461.89,282.00 L466.77,282.00 L471.65,282.00 L476.53,281.15 L481.41,261.69 L486.29,260.00 L491.16,258.73 L496.04,257.46 L500.92,254.50 L505.80,254.50 L510.68,254.08 L515.56,273.54 L520.44,270.15 L525.32,271.42 L530.20,272.69 L535.08,275.65 L539.96,275.65 L544.84,276.92 L549.71,275.23 L554.59,280.31 L559.47,280.31 L564.35,280.31 L569.23,280.31 L574.11,279.04 L578.99,279.04 L583.87,278.62 L588.75,263.81 L593.63,260.85 L598.51,260.85 L603.38,260.42 L608.26,259.15 L613.14,256.62 L618.02,254.92 L622.90,266.35 L627.78,269.31 L632.66,269.31 L637.54,268.88 L642.42,271.42 L647.30,273.96 L652.18,271.42 L657.05,260.85 L661.93,260.85 L666.81,260.00 L671.69,260.00 L676.57,258.73 L681.45,254.92 L686.33,259.58 L691.21,266.77 L696.09,266.77 L700.97,267.62 L705.85,268.46 L710.73,269.73 L715.60,273.12 L720.48,272.27 L725.36,274.38 L730.24,266.77 L735.12,264.23 L740.00,264.23 L744.88,264.23 L749.76,264.65 L754.64,267.19 L759.52,271.85 L764.40,279.46 L769.27,281.58 L774.15,280.73 L779.03,280.31 L783.91,272.27 L788.79,250.27 L793.67,232.92 L798.55,229.96 L803.43,229.54 L808.31,230.38 L813.19,229.54 L818.07,234.19 L822.95,250.27 L827.82,250.69 L832.70,253.23 L837.58,249.85 L842.46,246.46 L847.34,247.31 L852.22,250.69 L857.10,255.77 L861.98,272.69 L866.86,270.15 L871.74,270.58 L876.62,268.04 L881.49,265.92 L886.37,262.12 L891.25,255.35 L896.13,245.62 L901.01,246.04 L905.89,244.35 L910.77,247.73 L915.65,245.19 L920.53,243.08 L925.41,240.54 L930.29,246.04 L935.16,248.15 L940.04,252.81 L944.92,253.65 L949.80,251.96 L954.68,251.54 L959.56,257.46" fill="none" stroke="#22D3EE" stroke-width="2.5" stroke-linejoin="round" stroke-linecap="round"/>
<circle cx="959.56" cy="257.46" r="5" fill="#A78BFA" stroke="#080C18" stroke-width="2"/>
<text x="169.1" y="306" text-anchor="middle" class="mono" font-size="11" fill="#64748B">May</text>
<text x="320.4" y="306" text-anchor="middle" class="mono" font-size="11" fill="#64748B">Jun</text>
<text x="466.8" y="306" text-anchor="middle" class="mono" font-size="11" fill="#64748B">Jul</text>
<text x="618.0" y="306" text-anchor="middle" class="mono" font-size="11" fill="#64748B">Aug</text>
<text x="769.3" y="306" text-anchor="middle" class="mono" font-size="11" fill="#64748B">Sep</text>
<text x="915.6" y="306" text-anchor="middle" class="mono" font-size="11" fill="#64748B">Oct</text>
</svg>