<svg xmlns="http://www.w3.org/2000/svg" width="1000" height="330" viewBox="0 0 1000 330" role="img" aria-labelledby="t d">
<title id="t">Contribution signal</title><desc id="d">830 contributions over the last 182 days on 73 active days.</desc>
<defs><linearGradient id="area" x1="0" y1="0" x2="0" y2="1"><stop offset="0" stop-color="#FB923C" stop-opacity="0.38"/><stop offset="1" stop-color="#FB923C" stop-opacity="0.02"/></linearGradient><style>.sans{font-family:'Segoe UI',Inter,'Helvetica Neue',Arial,sans-serif}.mono{font-family:'JetBrains Mono','SF Mono',Consolas,'Courier New',monospace}</style></defs>
<rect x="1" y="1" width="998" height="328" rx="18" fill="#0C0A09" stroke="#292524"/>
<text x="44" y="58" class="sans" font-size="22" font-weight="700" fill="#FAFAF9">Contribution signal</text>
<text x="44" y="84" class="sans" font-size="14" fill="#A8A29E">Last six months, line shows the 7-day average</text>
<rect x="520" y="34" width="128" height="56" rx="12" fill="#1C1917" stroke="#292524"/>
<text x="536" y="58" class="mono" font-size="15" font-weight="700" fill="#FAFAF9">830</text>
<text x="536" y="77" class="mono" font-size="12" fill="#78716C">contributions</text>
<rect x="660" y="34" width="138" height="56" rx="12" fill="#1C1917" stroke="#292524"/>
<text x="676" y="58" class="mono" font-size="15" font-weight="700" fill="#FAFAF9">73/182</text>
<text x="676" y="77" class="mono" font-size="12" fill="#78716C">active days</text>
<rect x="810" y="34" width="152" height="56" rx="12" fill="#1C1917" stroke="#292524"/>
<text x="826" y="58" class="mono" font-size="15" font-weight="700" fill="#FAFAF9">66 on 10 Oct</text>
<text x="826" y="77" class="mono" font-size="12" fill="#78716C">busiest day</text>
<line x1="74" y1="282.0" x2="962" y2="282.0" stroke="#292524"/>
<text x="62" y="286.0" text-anchor="end" class="mono" font-size="11" fill="#78716C">0</text>
<line x1="74" y1="243.5" x2="962" y2="243.5" stroke="#292524"/>
<text x="62" y="247.5" text-anchor="end" class="mono" font-size="11" fill="#78716C">17</text>
<line x1="74" y1="205.0" x2="962" y2="205.0" stroke="#292524"/>
<text x="62" y="209.0" text-anchor="end" class="mono" font-size="11" fill="#78716C">34</text>
<line x1="74" y1="166.5" x2="962" y2="166.5" stroke="#292524"/>
<text x="62" y="170.5" text-anchor="end" class="mono" font-size="11" fill="#78716C">51</text>
<line x1="74" y1="128.0" x2="962" y2="128.0" stroke="#292524"/>
<text x="62" y="132.0" text-anchor="end" class="mono" font-size="11" fill="#78716C">68</text>
<rect x="74.93" y="272.94" width="3.03" height="9.06" rx="1" fill="#F97316" fill-opacity="0.5"/>
<rect x="79.81" y="257.09" width="3.03" height="24.91" rx="1" fill="#F97316" fill-opacity="0.5"/>
<rect x="265.21" y="207.26" width="3.03" height="74.74" rx="1" fill="#F97316" fill-opacity="0.5"/>
<rect x="270.09" y="275.21" width="3.03" height="6.79" rx="1" fill="#F97316" fill-opacity="0.5"/>
<rect x="475.01" y="277.47" width="3.03" height="4.53" rx="1" fill="#F97316" fill-opacity="0.5"/>
<rect x="479.89" y="177.82" width="3.03" height="104.18" rx="1" fill="#F97316" fill-opacity="0.5"/>
<rect x="484.77" y="272.94" width="3.03" height="9.06" rx="1" fill="#F97316" fill-opacity="0.5"/>
<rect x="489.65" y="275.21" width="3.03" height="6.79" rx="1" fill="#F97316" fill-opacity="0.5"/>
<rect x="494.53" y="275.21" width="3.03" height="6.79" rx="1" fill="#F97316" fill-opacity="0.5"/>
<rect x="499.41" y="266.15" width="3.03" height="15.85" rx="1" fill="#F97316" fill-opacity="0.5"/>
<rect x="509.17" y="275.21" width="3.03" height="6.79" rx="1" fill="#F97316" fill-opacity="0.5"/>
<rect x="518.93" y="254.82" width="3.03" height="27.18" rx="1" fill="#F97316" fill-opacity="0.5"/>
<rect x="548.20" y="272.94" width="3.03" height="9.06" rx="1" fill="#F97316" fill-opacity="0.5"/>
<rect x="572.60" y="275.21" width="3.03" height="6.79" rx="1" fill="#F97316" fill-opacity="0.5"/>
<rect x="582.36" y="270.68" width="3.03" height="11.32" rx="1" fill="#F97316" fill-opacity="0.5"/>
<rect x="587.23" y="202.74" width="3.03" height="79.26" rx="1" fill="#F97316" fill-opacity="0.5"/>
<rect x="592.11" y="266.15" width="3.03" height="15.85" rx="1" fill="#F97316" fill-opacity="0.5"/>
<rect x="601.87" y="279.74" width="3.03" height="2.26" rx="1" fill="#F97316" fill-opacity="0.5"/>
<rect x="606.75" y="268.41" width="3.03" height="13.59" rx="1" fill="#F97316" fill-opacity="0.5"/>
<rect x="611.63" y="268.41" width="3.03" height="13.59" rx="1" fill="#F97316" fill-opacity="0.5"/>
<rect x="616.51" y="261.62" width="3.03" height="20.38" rx="1" fill="#F97316" fill-opacity="0.5"/>
<rect x="621.39" y="263.88" width="3.03" height="18.12" rx="1" fill="#F97316" fill-opacity="0.5"/>
<rect x="636.03" y="277.47" width="3.03" height="4.53" rx="1" fill="#F97316" fill-opacity="0.5"/>
<rect x="650.66" y="248.03" width="3.03" height="33.97" rx="1" fill="#F97316" fill-opacity="0.5"/>
<rect x="655.54" y="207.26" width="3.03" height="74.74" rx="1" fill="#F97316" fill-opacity="0.5"/>
<rect x="665.30" y="277.47" width="3.03" height="4.53" rx="1" fill="#F97316" fill-opacity="0.5"/>
<rect x="670.18" y="277.47" width="3.03" height="4.53" rx="1" fill="#F97316" fill-opacity="0.5"/>
<rect x="675.06" y="275.21" width="3.03" height="6.79" rx="1" fill="#F97316" fill-opacity="0.5"/>
<rect x="679.94" y="261.62" width="3.03" height="20.38" rx="1" fill="#F97316" fill-opacity="0.5"/>
<rect x="684.82" y="272.94" width="3.03" height="9.06" rx="1" fill="#F97316" fill-opacity="0.5"/>
<rect x="689.70" y="245.76" width="3.03" height="36.24" rx="1" fill="#F97316" fill-opacity="0.5"/>
<rect x="714.09" y="279.74" width="3.03" height="2.26" rx="1" fill="#F97316" fill-opacity="0.5"/>
<rect x="718.97" y="268.41" width="3.03" height="13.59" rx="1" fill="#F97316" fill-opacity="0.5"/>
<rect x="723.85" y="257.09" width="3.03" height="24.91" rx="1" fill="#F97316" fill-opacity="0.5"/>
<rect x="728.73" y="241.24" width="3.03" height="40.76" rx="1" fill="#F97316" fill-opacity="0.5"/>
<rect x="733.61" y="268.41" width="3.03" height="13.59" rx="1" fill="#F97316" fill-opacity="0.5"/>
<rect x="767.76" y="279.74" width="3.03" height="2.26" rx="1" fill="#F97316" fill-opacity="0.5"/>
<rect x="772.64" y="277.47" width="3.03" height="4.53" rx="1" fill="#F97316" fill-opacity="0.5"/>
<rect x="777.52" y="279.74" width="3.03" height="2.26" rx="1" fill="#F97316" fill-opacity="0.5"/>
<rect x="782.40" y="238.97" width="3.03" height="43.03" rx="1" fill="#F97316" fill-opacity="0.5"/>
<rect x="787.28" y="164.24" width="3.03" height="117.76" rx="1" fill="#F97316" fill-opacity="0.5"/>
<rect x="792.16" y="189.15" width="3.03" height="92.85" rx="1" fill="#F97316" fill-opacity="0.5"/>
<rect x="797.04" y="266.15" width="3.03" height="15.85" rx="1" fill="#F97316" fill-opacity="0.5"/>
<rect x="801.92" y="277.47" width="3.03" height="4.53" rx="1" fill="#F97316" fill-opacity="0.5"/>
<rect x="811.67" y="275.21" width="3.03" height="6.79" rx="1" fill="#F97316" fill-opacity="0.5"/>
<rect x="816.55" y="263.88" width="3.03" height="18.12" rx="1" fill="#F97316" fill-opacity="0.5"/>
<rect x="821.43" y="250.29" width="3.03" height="31.71" rx="1" fill="#F97316" fill-opacity="0.5"/>
<rect x="826.31" y="191.41" width="3.03" height="90.59" rx="1" fill="#F97316" fill-opacity="0.5"/>
<rect x="831.19" y="279.74" width="3.03" height="2.26" rx="1" fill="#F97316" fill-opacity="0.5"/>
<rect x="836.07" y="259.35" width="3.03" height="22.65" rx="1" fill="#F97316" fill-opacity="0.5"/>
<rect x="840.95" y="263.88" width="3.03" height="18.12" rx="1" fill="#F97316" fill-opacity="0.5"/>
<rect x="845.83" y="279.74" width="3.03" height="2.26" rx="1" fill="#F97316" fill-opacity="0.5"/>
<rect x="855.59" y="277.47" width="3.03" height="4.53" rx="1" fill="#F97316" fill-opacity="0.5"/>
<rect x="865.34" y="266.15" width="3.03" height="15.85" rx="1" fill="#F97316" fill-opacity="0.5"/>
<rect x="870.22" y="261.62" width="3.03" height="20.38" rx="1" fill="#F97316" fill-opacity="0.5"/>
<rect x="875.10" y="250.29" width="3.03" height="31.71" rx="1" fill="#F97316" fill-opacity="0.5"/>
<rect x="879.98" y="268.41" width="3.03" height="13.59" rx="1" fill="#F97316" fill-opacity="0.5"/>
<rect x="884.86" y="261.62" width="3.03" height="20.38" rx="1" fill="#F97316" fill-opacity="0.5"/>
<rect x="889.74" y="241.24" width="3.03" height="40.76" rx="1" fill="#F97316" fill-opacity="0.5"/>
<rect x="894.62" y="229.91" width="3.03" height="52.09" rx="1" fill="#F97316" fill-opacity="0.5"/>
<rect x="899.50" y="268.41" width="3.03" height="13.59" rx="1" fill="#F97316" fill-opacity="0.5"/>
<rect x="904.38" y="252.56" width="3.03" height="29.44" rx="1" fill="#F97316" fill-opacity="0.5"/>
<rect x="909.26" y="268.41" width="3.03" height="13.59" rx="1" fill="#F97316" fill-opacity="0.5"/>
<rect x="914.14" y="254.82" width="3.03" height="27.18" rx="1" fill="#F97316" fill-opacity="0.5"/>
<rect x="919.01" y="250.29" width="3.03" height="31.71" rx="1" fill="#F97316" fill-opacity="0.5"/>
<rect x="923.89" y="227.65" width="3.03" height="54.35" rx="1" fill="#F97316" fill-opacity="0.5"/>
<rect x="928.77" y="259.35" width="3.03" height="22.65" rx="1" fill="#F97316" fill-opacity="0.5"/>
<rect x="933.65" y="279.74" width="3.03" height="2.26" rx="1" fill="#F97316" fill-opacity="0.5"/>
<rect x="938.53" y="277.47" width="3.03" height="4.53" rx="1" fill="#F97316" fill-opacity="0.5"/>
<rect x="943.41" y="272.94" width="3.03" height="9.06" rx="1" fill="#F97316" fill-opacity="0.5"/>
<rect x="948.29" y="245.76" width="3.03" height="36.24" rx="1" fill="#F97316" fill-opacity="0.5"/>
<rect x="953.17" y="248.03" width="3.03" height="33.97" rx="1" fill="#F97316" fill-opacity="0.5"/>
<rect x="958.05" y="132.53" width="3.03" height="149.47" rx="1" fill="#F97316" fill-opacity="0.5"/>
<path d="M76.44,272.94 L81.32,265.01 L86.20,270.68 L91.08,273.51 L95.96,275.21 L100.84,276.34 L105.71,277.15 L110.59,278.44 L115.47,282.00 L120.35,282.00 L125.23,282.00 L130.11,282.00 L134.99,282.00 L139.87,282.00 L144.75,282.00 L149.63,282.00 L154.51,282.00 L159.38,282.00 L164.26,282.00 L169.14,282.00 L174.02,282.00 L178.90,282.00 L183.78,282.00 L188.66,282.00 L193.54,282.00 L198.42,282.00 L203.30,282.00 L208.18,282.00 L213.05,282.00 L217.93,282.00 L222.81,282.00 L227.69,282.00 L232.57,282.00 L237.45,282.00 L242.33,282.00 L247.21,282.00 L252.09,282.00 L256.97,282.00 L261.85,282.00 L266.73,271.32 L271.60,270.35 L276.48,270.35 L281.36,270.35 L286.24,270.35 L291.12,270.35 L296.00,270.35 L300.88,281.03 L305.76,282.00 L310.64,282.00 L315.52,282.00 L320.40,282.00 L325.27,282.00 L330.15,282.00 L335.03,282.00 L339.91,282.00 L344.79,282.00 L349.67,282.00 L354.55,282.00 L359.43,282.00 L364.31,282.00 L369.19,282.00 L374.07,282.00 L378.95,282.00 L383.82,282.00 L388.70,282.00 L393.58,282.00 L398.46,282.00 L403.34,282.00 L408.22,282.00 L413.10,282.00 L417.98,282.00 L422.86,282.00 L427.74,282.00 L432.62,282.00 L437.49,282.00 L442.37,282.00 L447.25,282.00 L452.13,282.00 L457.01,282.00 L461.89,282.00 L466.77,282.00 L471.65,282.00 L476.53,281.35 L481.41,266.47 L486.29,265.18 L491.16,264.21 L496.04,263.24 L500.92,260.97 L505.80,260.97 L510.68,260.65 L515.56,275.53 L520.44,272.94 L525.32,273.91 L530.20,274.88 L535.08,277.15 L539.96,277.15 L544.84,278.12 L549.71,276.82 L554.59,280.71 L559.47,280.71 L564.35,280.71 L569.23,280.71 L574.11,279.74 L578.99,279.74 L583.87,279.41 L588.75,268.09 L593.63,265.82 L598.51,265.82 L603.38,265.50 L608.26,264.53 L613.14,262.59 L618.02,261.29 L622.90,270.03 L627.78,272.29 L632.66,272.29 L637.54,271.97 L642.42,273.91 L647.30,275.85 L652.18,273.91 L657.05,265.82 L661.93,265.82 L666.81,265.18 L671.69,265.18 L676.57,264.21 L681.45,261.29 L686.33,264.85 L691.21,270.35 L696.09,270.35 L700.97,271.00 L705.85,271.65 L710.73,272.62 L715.60,275.21 L720.48,274.56 L725.36,276.18 L730.24,270.35 L735.12,268.41 L740.00,268.41 L744.88,268.41 L749.76,268.74 L754.64,270.68 L759.52,274.24 L764.40,280.06 L769.27,281.68 L774.15,281.03 L779.03,280.71 L783.91,274.56 L788.79,257.74 L793.67,244.47 L798.55,242.21 L803.43,241.88 L808.31,242.53 L813.19,241.88 L818.07,245.44 L822.95,257.74 L827.82,258.06 L832.70,260.00 L837.58,257.41 L842.46,254.82 L847.34,255.47 L852.22,258.06 L857.10,261.94 L861.98,274.88 L866.86,272.94 L871.74,273.26 L876.62,271.32 L881.49,269.71 L886.37,266.79 L891.25,261.62 L896.13,254.18 L901.01,254.50 L905.89,253.21 L910.77,255.79 L915.65,253.85 L920.53,252.24 L925.41,250.29 L930.29,254.50 L935.16,256.12 L940.04,259.68 L944.92,260.32 L949.80,259.03 L954.68,258.71 L959.56,245.12 L959.56,282 L76.44,282 Z" fill="url(#area)"/>
<path d="M76.44,272.94 L81.32,265.01 L86.20,270.68 L91.08,273.51 L95.96,275.21 L100.84,276.34 L105.71,277.15 L110.59,278.44 L115.47,282.00 L120.35,282.00 L125.23,282.00 L130.11,282.00 L134.99,282.00 L139.87,282.00 L144.75,282.00 L149.63,282.00 L154.51,282.00 L159.38,282.00 L164.26,282.00 L169.14,282.00 L174.02,282.00 L178.90,282.00 L183.78,282.00 L188.66,282.00 L193.54,282.00 L198.42,282.00 L203.30,282.00 L208.18,282.00 L213.05,282.00 L217.93,282.00 L222.81,282.00 L227.69,282.00 L232.57,282.00 L237.45,282.00 L242.33,282.00 L247.21,282.00 L252.09,282.00 L256.97,282.00 L261.85,282.00 L266.73,271.32 L271.60,270.35 L276.48,270.35 L281.36,270.35 L286.24,270.35 L291.12,270.35 L296.00,270.35 L300.88,281.03 L305.76,282.00 L310.64,282.00 L315.52,282.00 L320.40,282.00 L325.27,282.00 L330.15,282.00 L335.03,282.00 L339.91,282.00 L344.79,282.00 L349.67,282.00 L354.55,282.00 L359.43,282.00 L364.31,282.00 L369.19,282.00 L374.07,282.00 L378.95,282.00 L383.82,282.00 L388.70,282.00 L393.58,282.00 L398.46,282.00 L403.34,282.00 L408.22,282.00 L413.10,282.00 L417.98,282.00 L422.86,282.00 L427.74,282.00 L432.62,282.00 L437.49,282.00 L442.37,282.00 L447.25,282.00 L452.13,282.00 L457.01,282.00 L461.89,282.00 L466.77,282.00 L471.65,282.00 L476.53,281.35 L481.41,266.47 L486.29,265.18 L491.16,264.21 L496.04,263.24 L500.92,260.97 L505.80,260.97 L510.68,260.65 L515.56,275.53 L520.44,272.94 L525.32,273.91 L530.20,274.88 L535.08,277.15 L539.96,277.15 L544.84,278.12 L549.71,276.82 L554.59,280.71 L559.47,280.71 L564.35,280.71 L569.23,280.71 L574.11,279.74 L578.99,279.74 L583.87,279.41 L588.75,268.09 L593.63,265.82 L598.51,265.82 L603.38,265.50 L608.26,264.53 L613.14,262.59 L618.02,261.29 L622.90,270.03 L627.78,272.29 L632.66,272.29 L637.54,271.97 L642.42,273.91 L647.30,275.85 L652.18,273.91 L657.05,265.82 L661.93,265.82 L666.81,265.18 L671.69,265.18 L676.57,264.21 L681.45,261.29 L686.33,264.85 L691.21,270.35 L696.09,270.35 L700.97,271.00 L705.85,271.65 L710.73,272.62 L715.60,275.21 L720.48,274.56 L725.36,276.18 L730.24,270.35 L735.12,268.41 L740.00,268.41 L744.88,268.41 L749.76,268.74 L754.64,270.68 L759.52,274.24 L764.40,280.06 L769.27,281.68 L774.15,281.03 L779.03,280.71 L783.91,274.56 L788.79,257.74 L793.67,244.47 L798.55,242.21 L803.43,241.88 L808.31,242.53 L813.19,241.88 L818.07,245.44 L822.95,257.74 L827.82,258.06 L832.70,260.00 L837.58,257.41 L842.46,254.82 L847.34,255.47 L852.22,258.06 L857.10,261.94 L861.98,274.88 L866.86,272.94 L871.74,273.26 L876.62,271.32 L881.49,269.71 L886.37,266.79 L891.25,261.62 L896.13,254.18 L901.01,254.50 L905.89,253.21 L910.77,255.79 L915.65,253.85 L920.53,252.24 L925.41,250.29 L930.29,254.50 L935.16,256.12 L940.04,259.68 L944.92,260.32 L949.80,259.03 L954.68,258.71 L959.56,245.12" fill="none" stroke="#FDBA74" stroke-width="2.5" stroke-linejoin="round" stroke-linecap="round"/>
<circle cx="959.56" cy="245.12" r="5" fill="#FBBF24" stroke="#0C0A09" stroke-width="2"/>
<text x="169.1" y="306" text-anchor="middle" class="mono" font-size="11" fill="#78716C">May</text>
<text x="320.4" y="306" text-anchor="middle" class="mono" font-size="11" fill="#78716C">Jun</text>
<text x="466.8" y="306" text-anchor="middle" class="mono" font-size="11" fill="#78716C">Jul</text>
<text x="618.0" y="306" text-anchor="middle" class="mono" font-size="11" fill="#78716C">Aug</text>
<text x="769.3" y="306" text-anchor="middle" class="mono" font-size="11" fill="#78716C">Sep</text>
<text x="915.6" y="306" text-anchor="middle" class="mono" font-size="11" fill="#78716C">Oct</text>
</svg>
